<svg id="visual" viewBox="0 0 900 600" width="900" height="600" xmlns="http://www.w3.org/2000/svg" xmlns:xlink="http://www.w3.org/1999/xlink" version="1.1"><g stroke-width="1" stroke-linejoin="bevel"><path d="M417 268L472 199L432 192Z" fill="#1d4e6b" stroke="#1d4e6b"></path><path d="M417 268L500 278L472 199Z" fill="#1d4e6b" stroke="#1d4e6b"></path><path d="M500 278L573 213L472 199Z" fill="#0c2435" stroke="#0c2435"></path><path d="M472 199L419 70L432 192Z" fill="#15384f" stroke="#15384f"></path><path d="M432 192L307 232L417 268Z" fill="#112e42" stroke="#112e42"></path><path d="M307 232L302 311L417 268Z" fill="#297ea6" stroke="#297ea6"></path><path d="M417 268L439 416L500 278Z" fill="#246688" stroke="#246688"></path><path d="M538 68L419 70L472 199Z" fill="#297ea6" stroke="#297ea6"></path><path d="M432 192L285 97L307 232Z" fill="#15384f" stroke="#15384f"></path><path d="M302 311L439 416L417 268Z" fill="#15384f" stroke="#15384f"></path><path d="M500 278L638 278L573 213Z" fill="#1d4e6b" stroke="#1d4e6b"></path><path d="M573 213L591 119L472 199Z" fill="#246688" stroke="#246688"></path><path d="M591 119L538 68L472 199Z" fill="#1d4e6b" stroke="#1d4e6b"></path><path d="M636 389L638 278L500 278Z" fill="#15384f" stroke="#15384f"></path><path d="M573 213L713 170L591 119Z" fill="#297ea6" stroke="#297ea6"></path><path d="M439 416L469 436L500 278Z" fill="#112e42" stroke="#112e42"></path><path d="M419 70L285 97L432 192Z" fill="#112e42" stroke="#112e42"></path><path d="M307 232L216 302L302 311Z" fill="#297ea6" stroke="#297ea6"></path><path d="M439 511L469 436L439 416Z" fill="#081a28" stroke="#081a28"></path><path d="M439 511L493 461L469 436Z" fill="#00101c" stroke="#00101c"></path><path d="M469 436L636 389L500 278Z" fill="#246688" stroke="#246688"></path><path d="M191 164L216 302L307 232Z" fill="#00101c" stroke="#00101c"></path><path d="M302 311L272 439L439 416Z" fill="#1d4e6b" stroke="#1d4e6b"></path><path d="M419 70L312 0L285 97Z" fill="#19435d" stroke="#19435d"></path><path d="M507 0L386 0L419 70Z" fill="#00101c" stroke="#00101c"></path><path d="M589 0L507 0L538 68Z" fill="#1d4e6b" stroke="#1d4e6b"></path><path d="M538 68L507 0L419 70Z" fill="#00101c" stroke="#00101c"></path><path d="M636 389L675 314L638 278Z" fill="#205a7a" stroke="#205a7a"></path><path d="M638 278L713 170L573 213Z" fill="#112e42" stroke="#112e42"></path><path d="M312 0L237 108L285 97Z" fill="#246688" stroke="#246688"></path><path d="M285 97L237 108L307 232Z" fill="#277297" stroke="#277297"></path><path d="M493 461L636 389L469 436Z" fill="#246688" stroke="#246688"></path><path d="M237 108L191 164L307 232Z" fill="#1d4e6b" stroke="#1d4e6b"></path><path d="M216 302L272 439L302 311Z" fill="#112e42" stroke="#112e42"></path><path d="M386 0L312 0L419 70Z" fill="#205a7a" stroke="#205a7a"></path><path d="M121 66L134 178L191 164Z" fill="#00101c" stroke="#00101c"></path><path d="M681 0L589 0L591 119Z" fill="#1d4e6b" stroke="#1d4e6b"></path><path d="M591 119L589 0L538 68Z" fill="#112e42" stroke="#112e42"></path><path d="M675 314L713 170L638 278Z" fill="#297ea6" stroke="#297ea6"></path><path d="M320 484L439 511L439 416Z" fill="#246688" stroke="#246688"></path><path d="M493 461L603 485L636 389Z" fill="#112e42" stroke="#112e42"></path><path d="M272 439L320 484L439 416Z" fill="#15384f" stroke="#15384f"></path><path d="M636 389L714 424L675 314Z" fill="#19435d" stroke="#19435d"></path><path d="M539 600L603 485L493 461Z" fill="#15384f" stroke="#15384f"></path><path d="M713 170L715 95L591 119Z" fill="#00101c" stroke="#00101c"></path><path d="M121 66L191 164L237 108Z" fill="#297ea6" stroke="#297ea6"></path><path d="M191 164L134 178L216 302Z" fill="#081a28" stroke="#081a28"></path><path d="M216 302L187 439L272 439Z" fill="#081a28" stroke="#081a28"></path><path d="M672 497L714 424L636 389Z" fill="#0c2435" stroke="#0c2435"></path><path d="M675 314L792 276L713 170Z" fill="#19435d" stroke="#19435d"></path><path d="M713 170L792 81L715 95Z" fill="#297ea6" stroke="#297ea6"></path><path d="M111 423L187 439L216 302Z" fill="#00101c" stroke="#00101c"></path><path d="M272 439L208 486L320 484Z" fill="#00101c" stroke="#00101c"></path><path d="M715 95L681 0L591 119Z" fill="#277297" stroke="#277297"></path><path d="M187 439L208 486L272 439Z" fill="#0c2435" stroke="#0c2435"></path><path d="M320 484L435 600L439 511Z" fill="#297ea6" stroke="#297ea6"></path><path d="M626 600L672 497L603 485Z" fill="#0c2435" stroke="#0c2435"></path><path d="M603 485L672 497L636 389Z" fill="#0c2435" stroke="#0c2435"></path><path d="M824 377L792 276L675 314Z" fill="#19435d" stroke="#19435d"></path><path d="M715 95L802 0L681 0Z" fill="#277297" stroke="#277297"></path><path d="M312 0L171 0L237 108Z" fill="#081a28" stroke="#081a28"></path><path d="M171 0L121 66L237 108Z" fill="#112e42" stroke="#112e42"></path><path d="M280 600L435 600L320 484Z" fill="#00101c" stroke="#00101c"></path><path d="M439 511L539 600L493 461Z" fill="#1d4e6b" stroke="#1d4e6b"></path><path d="M792 276L821 211L713 170Z" fill="#00101c" stroke="#00101c"></path><path d="M435 600L539 600L439 511Z" fill="#081a28" stroke="#081a28"></path><path d="M821 211L792 81L713 170Z" fill="#112e42" stroke="#112e42"></path><path d="M62 312L111 423L216 302Z" fill="#205a7a" stroke="#205a7a"></path><path d="M187 439L110 508L208 486Z" fill="#15384f" stroke="#15384f"></path><path d="M62 312L216 302L134 178Z" fill="#00101c" stroke="#00101c"></path><path d="M0 230L62 312L134 178Z" fill="#19435d" stroke="#19435d"></path><path d="M205 600L280 600L208 486Z" fill="#081a28" stroke="#081a28"></path><path d="M208 486L280 600L320 484Z" fill="#1d4e6b" stroke="#1d4e6b"></path><path d="M768 493L824 377L714 424Z" fill="#15384f" stroke="#15384f"></path><path d="M714 424L824 377L675 314Z" fill="#00101c" stroke="#00101c"></path><path d="M792 276L900 238L821 211Z" fill="#246688" stroke="#246688"></path><path d="M539 600L626 600L603 485Z" fill="#246688" stroke="#246688"></path><path d="M672 497L768 493L714 424Z" fill="#277297" stroke="#277297"></path><path d="M773 600L768 493L672 497Z" fill="#297ea6" stroke="#297ea6"></path><path d="M626 600L660 600L672 497Z" fill="#15384f" stroke="#15384f"></path><path d="M900 0L802 0L792 81Z" fill="#1d4e6b" stroke="#1d4e6b"></path><path d="M792 81L802 0L715 95Z" fill="#1d4e6b" stroke="#1d4e6b"></path><path d="M111 423L110 508L187 439Z" fill="#0c2435" stroke="#0c2435"></path><path d="M0 467L110 508L111 423Z" fill="#1d4e6b" stroke="#1d4e6b"></path><path d="M110 508L205 600L208 486Z" fill="#277297" stroke="#277297"></path><path d="M171 0L72 0L121 66Z" fill="#277297" stroke="#277297"></path><path d="M0 127L0 230L134 178Z" fill="#0c2435" stroke="#0c2435"></path><path d="M0 127L134 178L121 66Z" fill="#0c2435" stroke="#0c2435"></path><path d="M62 312L0 437L111 423Z" fill="#277297" stroke="#277297"></path><path d="M900 323L900 238L792 276Z" fill="#15384f" stroke="#15384f"></path><path d="M821 211L900 118L792 81Z" fill="#277297" stroke="#277297"></path><path d="M900 323L792 276L824 377Z" fill="#277297" stroke="#277297"></path><path d="M0 230L0 329L62 312Z" fill="#0c2435" stroke="#0c2435"></path><path d="M72 0L0 127L121 66Z" fill="#081a28" stroke="#081a28"></path><path d="M900 409L900 323L824 377Z" fill="#0c2435" stroke="#0c2435"></path><path d="M900 238L900 118L821 211Z" fill="#112e42" stroke="#112e42"></path><path d="M900 483L824 377L768 493Z" fill="#277297" stroke="#277297"></path><path d="M900 483L900 409L824 377Z" fill="#19435d" stroke="#19435d"></path><path d="M0 329L0 437L62 312Z" fill="#081a28" stroke="#081a28"></path><path d="M110 508L85 600L205 600Z" fill="#205a7a" stroke="#205a7a"></path><path d="M660 600L773 600L672 497Z" fill="#112e42" stroke="#112e42"></path><path d="M0 437L0 467L111 423Z" fill="#19435d" stroke="#19435d"></path><path d="M72 0L0 0L0 127Z" fill="#15384f" stroke="#15384f"></path><path d="M900 118L900 0L792 81Z" fill="#205a7a" stroke="#205a7a"></path><path d="M0 600L85 600L110 508Z" fill="#277297" stroke="#277297"></path><path d="M900 600L900 483L768 493Z" fill="#19435d" stroke="#19435d"></path><path d="M0 467L0 600L110 508Z" fill="#19435d" stroke="#19435d"></path><path d="M773 600L900 600L768 493Z" fill="#15384f" stroke="#15384f"></path></g></svg>