<svg id="visual" viewBox="0 0 900 600" width="900" height="600" xmlns="http://www.w3.org/2000/svg" xmlns:xlink="http://www.w3.org/1999/xlink" version="1.1"><rect x="0" y="0" width="900" height="600" fill="#000"></rect><defs><linearGradient id="grad1_0" x1="33.3%" y1="0%" x2="100%" y2="100%"><stop offset="20%" stop-color="#000000" stop-opacity="1"></stop><stop offset="80%" stop-color="#000000" stop-opacity="1"></stop></linearGradient></defs><defs><linearGradient id="grad2_0" x1="0%" y1="0%" x2="66.7%" y2="100%"><stop offset="20%" stop-color="#000000" stop-opacity="1"></stop><stop offset="80%" stop-color="#000000" stop-opacity="1"></stop></linearGradient></defs><g transform="translate(900, 0)"><path d="M0 486.7C-55 461.5 -109.9 436.3 -173 417.6C-236 398.9 -307.2 386.7 -344.2 344.2C-381.1 301.7 -383.8 228.9 -401.9 166.5C-419.9 104.1 -453.3 52 -486.7 0L0 0Z" fill="#FF512F"></path></g><g transform="translate(0, 600)"><path d="M0 -486.7C54.6 -452.4 109.3 -418 162.6 -392.6C216 -367.3 268.1 -350.9 319.6 -319.6C371.1 -288.3 421.9 -242 449.7 -186.3C477.4 -130.5 482.1 -65.3 486.7 0L0 0Z" fill="#FF512F"></path></g></svg>